/* XPM */
static char *d908e71dad4e46b2fffd62818f91371d5UjeEE94LPtm7E4I[] = {
/* columns rows colors chars-per-pixel */
"48 48 74 1 ",
"  c #787457",
". c #797558",
"X c #7A7659",
"o c #7B775A",
"O c #7C785B",
"+ c #898568",
"@ c #8B876A",
"# c #8C886B",
"$ c #8D896C",
"% c #8E8A6D",
"& c #8F8B6E",
"* c #908C6F",
"= c #918D70",
"- c #928E71",
"; c #999578",
": c #9A9679",
"> c #9B977A",
", c #9B9879",
"< c #9C997A",
"1 c #9C987B",
"2 c #9D9A7B",
"3 c #9D997C",
"4 c #9E9B7C",
"5 c #9E9A7D",
"6 c #9F9B7E",
"7 c #9F9C7D",
"8 c #A09D7E",
"9 c #A09C7F",
"0 c #A19E7F",
"q c #A19D80",
"w c #A29F80",
"e c #A29E81",
"r c #A39F82",
"t c #A3A081",
"y c #ADA98C",
"u c #AEAA8D",
"i c #AFAB8E",
"p c #AFAC8D",
"a c #B0AD8E",
"s c #B0AC8F",
"d c #B1AE8F",
"f c #B1AD90",
"g c #B2AF90",
"h c #B2AE91",
"j c #B3AF92",
"k c #B4B192",
"l c #B4B093",
"z c #B5B293",
"x c #B5B194",
"c c #B6B394",
"v c #B6B295",
"b c #B7B396",
"n c #B7B495",
"m c #B8B596",
"M c #B8B497",
"N c #B9B598",
"B c #BAB798",
"V c #BAB699",
"C c #BBB79A",
"Z c #BBB899",
"A c #BCB99A",
"S c #BCB89B",
"D c #BDBA9B",
"F c #BDB99C",
"G c #BEBB9C",
"H c #BEBA9D",
"J c #BFBB9E",
"K c #BFBC9D",
"L c #C0BD9E",
"P c #C0BC9F",
"I c #C1BE9F",
"U c #C1BDA0",
"Y c #C2BEA1",
"T c #C3BFA2",
/* pixels */
"5911PH....HP1195HS&&&&SH5195HHihhiHH5915HH....HH",
"5>qqNN....NNqq>5HN=&&=NHq>59SHhiihHS95>qSS....SS",
"9551HY .. YH1559SP@&&@PS>511SHhcchHS115>HH....HH",
"1559NNO..ONN9551HH&&&&HH5q55HHissiHH55q5NH....HN",
"HSHHHYNHPNYSHHSHSHHHHHHSHNSNHHHSSHHHNSNHHHHSSHHH",
"NSHSHNSNSSNHNHSNHHHHHHHHHHHNHHNHHNHHNHHHNPNHHNPN",
"5955HSlhhlSH5595SH5555HS1919HH5555HH9191HS5555SH",
"9>q5SNhsshNH5q>5HH5555HH5559NH5555HN9555SH5555HS",
"1517KSkpssSK1191HS9559SH5>95NP5555HN5q>5HH5555HH",
"1q59SSskslSZq557SH5555HS5955HH5519HH5159HNq55qNH",
"SZSNSKSSSSKSZSSHHHSHHSHHSHHNHNSHPHNHNHHNHHNSSNHH",
"HZHSSPSSKZPSKHSSHHHSSHHHHSHSYHHNSHHYHHHHHHHHHHHH",
"1919NN7919NZnlnnSH5555HS5q55SN5555SH1>95HShiihSH",
"1917KH11,5SPclnlHH1551HH5551HH5qq5HH5595HHhhhhHH",
"7,79NNt597ZSlnnnHNq55qNH5>55HH5>>5NSq915SShhhhSS",
"7771KS7119ZKlnlmHH1551HH1955HN5595SH5191HNhsshNH",
"HHHSHHSHHSHHHHHHHHHHHHHHHHHSHHHHHHHHSHHHHHHHHHHH",
"HNHHHHHSHHHHHPNHHSHSSHSHHPSHSNHHHHNSHSPHHSHSSHSH",
"1q15HH5955HH&@=&NH5555HN5555HH....HH5555NH5555HN",
"5559SH5555HH&&&&HH5555HH5559SS....SS9555HH5555HH",
"5559SH5555HH&&&&HH5555HH5559SS....SS9555HH5555HH",
"1q15HH5955HH&@=&NH5555HN5555HH....HH5555NH5555HN",
"HNHHHHHSHHHHHPNHHSHSSHSHHPSHSNHHHHNSHSPHHSHSSHSH",
"HHHSHHSHHSHHHHHHHHHHHHHHHHHSHHHHHHHHSHHHHHHHHHHH",
"cmcmSH9595SH5191HH1551HH1955HN5559SP#&&&HH1551HH",
"cmccHH>>>5NSq915HNq55qNH5>55HH5>5qNN==@@HNq55qNH",
"lmccHH5qq5HH5595HH1551HH5551HH5q55PH&&&=HH1551HH",
"cmccSN5155SH1>95SH5555HS5q55SN5559NN*#&&SH5555HS",
"NHSHPPSHSHHYHHHHHHHSSHHHHSHSYHHNSHHPHHHHHHHSSHHH",
"SHSNSSSHPHNHNHHNHHSHHSHHSHHNHNSHHSHSHSHHHHSHHSHH",
"955qNHq119HH5159SH5555HS5955HH5555HHsihiSH5555HS",
"51q5NH>955HN5q>5HS9559SH5>95NP555>HNhlihHS9559SH",
"5155NH>99>HN5515HS9559SH51q5NH>951YNhhilHS9559SH",
"59>5HH5>>5HH5>95SH5555HS955qNHq195SHhhhiSH5555HS",
"NHHNSSSYYSSSNHHNHHSHHSHHSHSNSSSHSSHNHHPPHHSHHSHH",
"HHHHHHNNNNHHHHHHHHHSSHHHNHSHPPSHSHHHHNNNHHHSSHHH",
"59>5HN=&&=NH5>95SH5555HScmccSN5155NS55q5SH5555HS",
"5555HH&&&&HH5555HH1551HHlmccHH5q55PH>155HH1551HH",
"9>99NS&@@&SN99>9HNq55qNHcmccHH>>55SHq9>1HNq55qNH",
"5555HH&&&&HH5555HH1551HHcmcmSH9595NH55q1HH1551HH",
"HHSHSSHHHHSSHSHHHHHHHHHHHHHSHHSHHSHHSHHHHHSHHSHH",
"SHHSPHSHHSHPSHHSHHSHHSHHHNHHHHHSSHHHHHNHSHHHHHHS",
"9155NHhhhhHN5519SS....SS1q15HH5995HH51q1HH&&&&HH",
"5555HHshhsHH5555HH....HH5559SH5555HS9555HH&&&&HH",
"5555HHshhsHH5555HH....HH5559SH5555HS9555HH&&&&HH",
"9155NHhhhhHN5519SS....SS1q15HH5995HH51q1HH&&&&HH",
"SHHSPHSHHSHPSHHSHHSHHSHHHNHHHHHSSHHHHHNHSHHHHSHS",
"HHSHSSHHHHSSHSHHHHHHHHHHHHHSHHSHHSHHSHHHHHSHHSHH"
};
