/* XPM */
static char *_753c4cf76e44625d816d1d438f3f962RwWgn904HyJwrnf7[] = {
/* columns rows colors chars-per-pixel */
"48 48 219 2 ",
"   c #000206",
".  c #000710",
"X  c #1A1217",
"o  c #1B0F24",
"O  c #1B0E2A",
"+  c #140E29",
"@  c #1C1124",
"#  c #19122B",
"$  c #1B0E35",
"%  c #150C33",
"&  c #141132",
"*  c #191236",
"=  c #270929",
"-  c #0F2C37",
";  c #1A2B35",
":  c #142D3A",
">  c #1A2A37",
",  c #17313A",
"<  c #1F2A26",
"1  c #33332E",
"2  c #242736",
"3  c #29353E",
"4  c #33343C",
"5  c #363637",
"6  c #242E26",
"7  c #372E46",
"8  c #2D3444",
"9  c #283C47",
"0  c #323344",
"q  c #363A4A",
"w  c #3B3E52",
"e  c #303E58",
"r  c #403F51",
"t  c #1E4542",
"y  c #224246",
"u  c #3B414D",
"i  c #3B4546",
"p  c #344153",
"a  c #3B4153",
"s  c #394459",
"d  c #2F4159",
"f  c #3B4461",
"g  c #7B5F51",
"h  c #4A615B",
"j  c #506252",
"k  c #796354",
"l  c #7B7557",
"z  c #777658",
"x  c #7A765A",
"c  c #7B785B",
"v  c #757757",
"b  c #55536E",
"n  c #5C5372",
"m  c #674C72",
"M  c #605170",
"N  c #634F65",
"B  c #4D716F",
"V  c #5B716F",
"C  c #557776",
"Z  c #516B71",
"A  c #6C6C6C",
"S  c #746E68",
"D  c #6F716E",
"F  c #7E7760",
"G  c #626C76",
"H  c #6C6C75",
"J  c #656B7D",
"K  c #6C6C7C",
"L  c #676678",
"P  c #716B7B",
"I  c #736A77",
"U  c #65717C",
"Y  c #6C727D",
"T  c #687478",
"R  c #717078",
"E  c #895E4E",
"W  c #886D5D",
"Q  c #87715D",
"!  c #93675C",
"~  c #BB6B6A",
"^  c #B76B66",
"/  c #AA7368",
"(  c #AA6F69",
")  c #C4666A",
"_  c #8E8D5F",
"`  c #8B8766",
"'  c #8D8B66",
"]  c #8E8A6B",
"[  c #918D6D",
"{  c #8D8972",
"}  c #89827D",
"|  c #9C9A77",
" . c #9B977B",
".. c #979C7B",
"X. c #9D9A7C",
"o. c #979473",
"O. c #A1967D",
"+. c #AB947C",
"@. c #A09C7E",
"#. c #A8987F",
"$. c #9FA07E",
"%. c #A0A07E",
"&. c #656D81",
"*. c #6B6D82",
"=. c #736982",
"-. c #6C7183",
";. c #657183",
":. c #79799C",
">. c #727483",
",. c #857E8D",
"<. c #857E96",
"1. c #5F8882",
"2. c #648889",
"3. c #7D848E",
"4. c #7D8393",
"5. c #738D9E",
"6. c #7B8B9D",
"7. c #7A8797",
"8. c #76919E",
"9. c #6C8C9B",
"0. c #758CA3",
"q. c #7B8BA3",
"w. c #7A87A4",
"e. c #7492A3",
"r. c #858584",
"t. c #84838B",
"y. c #8A848B",
"u. c #878985",
"i. c #9B9584",
"p. c #949C85",
"a. c #9D9A82",
"s. c #969B8C",
"d. c #9C9B8B",
"f. c #99968A",
"g. c #848393",
"h. c #898393",
"j. c #85829A",
"k. c #898498",
"l. c #838D9A",
"z. c #9D9894",
"x. c #A19C82",
"c. c #A09989",
"v. c #A19784",
"b. c #A19893",
"n. c #96A187",
"m. c #93A195",
"M. c #AEAC8D",
"N. c #A8A487",
"B. c #B0AD8E",
"V. c #B4B28D",
"C. c #B2AE91",
"Z. c #B6A99A",
"A. c #B5B393",
"S. c #BAB695",
"D. c #BBBA96",
"F. c #BBB69A",
"G. c #B7BB99",
"H. c #BDBA9C",
"J. c #B7B998",
"K. c #ADB19D",
"L. c #8288A5",
"P. c #8F93B0",
"I. c #AD92A8",
"U. c #AC8EB4",
"Y. c #A793B6",
"T. c #9CADBB",
"R. c #9BB7BD",
"E. c #AEADA4",
"W. c #B1AFA5",
"Q. c #AFBCAE",
"!. c #B5B6A1",
"~. c #BCB6A3",
"^. c #B6BBA4",
"/. c #BCBAA3",
"(. c #BBB5AA",
"). c #B6B9AB",
"_. c #BBB9AC",
"`. c #B6B5A9",
"'. c #A3ABB8",
"]. c #A8B5BB",
"[. c #BAB9B1",
"{. c #B7B9B5",
"}. c #D99596",
"|. c #C3B69B",
" X c #C0BB9D",
".X c #C6B499",
"XX c #CFAA97",
"oX c #DA94A5",
"OX c #CBB3A1",
"+X c #C1BBA3",
"@X c #C2BAA6",
"#X c #C9AFAE",
"$X c #BAC0A6",
"%X c #C0C09E",
"&X c #B89EC5",
"*X c #9CAEC4",
"=X c #9DAEC9",
"-X c #97ADC5",
";X c #9AB2C4",
":X c #9CB1C9",
">X c #9AB7C4",
",X c #A6BDCD",
"<X c #ACBCCC",
"1X c #A5B7C7",
"2X c #B3BCC5",
"3X c #B5BBCA",
"4X c #ABBDD3",
"5X c #A9BDD6",
"6X c #B2BBD3",
"7X c #ADA9C3",
"8X c #C3AAC8",
"9X c #C7B2CE",
"0X c #A9C4CB",
"qX c #B4CBCE",
"wX c #AAC0D5",
"eX c #AEC1DA",
"rX c #B2C2D9",
"tX c #F3FFFF",
"yX c #F9FFFF",
/* pixels */
"| X.| X././.z z c F @XF.x.@.o.%.H.H.' _ ' ] H.H.X.X.x.a.H.H.M.A.C.M.H.H.X.@.| X.H.H.z z z z H.H.",
"| | x.x.J.F.z c x z F.H.@.@.@. .H.F.[ ' ' [ F.H.x. .x.x.H.H.B.M.M.C.H.H.@.X. .x.H.H.z z z z H.H.",
"#.O.X.X.H.+Xx x c c H.J.@.| i.a.F.H.` ] ] ` +XH. .X.| | H.J.M.A.A.C.H.H.| | X. .H.H.z z z z H.H.",
"O.O.a.a.S.S.c z z v D.H.| | c.a.H.H.{ { { ] H.H.| N.| @.H.H.M.B.B.M.H.H.X.X.x.X.F.H.z z z z H.F.",
"H.J./.F.H. XD.H.D.D.D. XD.D.H.F.D.J./././.F.J.J.H.F.H.D.H.H.H.H.H.H.H.H.F.H.F.H.H.H.H.H.H.H.H.H.",
"D.J.F.F. XS.D.D.^.^.!.^.!.$X~.@XH.H././.F.J.H.H.H.H.H.D.H.H.F.+XH.F.H.H.F.H.H.H.F. XF.H.H.F. XF.",
"X.X.X.X.H.H.A.C.{.2X3X<X0X2XH S /.F.a.a.X.| H.H.| @.| @.H./.a.a.X.X.H.H.@.| x.| H.H.@.X.X.X.H.H.",
"@. .x.X.H.|.XXZ.2X4X4X4X,X<XJ I _./.a.a.X.| H.H.X.X.| @.F.H.x.x.X.X.H.F.x.X.X.X.H.H.X.@.X.X.H.H.",
"X.a.a.a.@XOX}.}.3X<X.   tXtXK P D S a.X.X.|  XH.@. .@.X.D. X| @.X.X.H.F.X.x. .X.H.H.X.X.X.X.H.H.",
"X.a.a.a._.#X}.oX9X3X    yXyXK K H A a.X.@.@.H. Xx.@.X.X.D.D.| | | @.H.H.X.| X.x.H.F.x.X.X.x.F.H.",
"H.H.J.^.< 2 = = <.g.h.h.g.g.Y Y >.A /.H.S. X|.H.H.H.H.J.H.D.H.H. XH.F.H.F.H.H.F.H.H.F.H.H.F.H.H.",
"S.H.H.^.6 2 + # k.h.,.h.j.j.U G G T ^.G.H.D.F.+X/.H.H.J.%XH.H.F.H.H.H.+XH.H.H.H.H.H.H.H.H.H.H.H.",
"@.| X.a.~.~.d.s.r.t.g.g.*.J qXqXU V n.n...@.H.H.a.c.X.X.J.F.a.a.a.X.H.H.|  .@.X.H.H.C.M.M.C.F.H.",
"| | X.X. XF.X.a.y.k.g.4.U U 0XqXC V m.p...X.H.H.a.a.X.X.H.H.a.c.x.X.H.H.X.X.@.X.H.H.C.C.C.C.H.H.",
"O.| X.../.H...i.8X9XP Y 1XR.2.1.B C h j n...J.H.x. .| | D.H.a. . .X.F.H.x.@.| X.H.H.C.C.C.C.H.H.",
"v.X.X...F./.X.c.8X9X=.K <X>X2.2.C B h h p...H.H.| @.| | H.D.X.a.@.X.H.H.X.| @.| H.J.C.B.B.C.F.H.",
"~.H.D.H.H.H.H.~.I.U.&X&X:.7.q.6.y t y 3 ^.G.J.H. XH. XH.D.H.~.@XH.J.H.H.H.H.H.H.H.H.J.J.H.H.H.H.",
"/./.D.S.H.+XD.@XI.U.&X&X:.:.L.q.y y y 9 Q.^.J.D. XH.H.H.H.H./.F.F.J.J.J.H.H. XH.H.H.H.J.H.H.H. X",
"X.X.| $.F.F.X.i.N m U.Y.P.P.f s 5X,XwX4X<X]./.D.| X.a.X. XD.l c c z H.H.X.@.X.| H.H.| X.X.| H.F.",
"x.X.X.| F./.a.z.N m U.Y.P.P.e d 4XwX5X5X5X<XQ.^.s.d.p.X.H.S.l l z z H.H.@.X.X.X.J.H.X.X.X.X.H.H.",
"X.X.X...J.^.r.t.P P M n 6X4X4XwX0X0XwX5X=X*X].T.7X'.s.a.J.H.z v z z H.H.@.X.X.X.F.H.X.X.X.X.H.H.",
"X.X.| X.J._.t.g.P P b b 6X4X4X,X,X0X4X5X*X=X*X:X=X'.z.X.J.H.v z c z  X XX.@.X.X.J.H...X.X.X. XF.",
"H. XH.F. X~.t.j.K *.3X<X4XwX,X4X1X:X:XT.1X*X;X;X*X].~. XD.D.J.J.H.H.F.H.H.H. XH.H.J.G.J.H.H.H. X",
"J.H.H.H. X(.t.j.*.&.<X<X,X5XeX5X=X=X*X;XT.;X;X;XT.'.[./.H.D.H.H.H.H.H. XH.H.H.H.F.F.F.F.H.H.H.H.",
"V.A.A.S.H.(.y.j.*.&.0X<X4X5X:X=X=X=X:X;X8.8.0.0.6.6.7.u.^.J.x.x.a.|  XH.] [ ] ] J.H.X.X.X.|  XH.",
"S.V.V.S.F._.y.<.*.&.<X<XrXeX=X-X=X*X=X:X9.e.0.w.q.6.q.7.).^.x.v.c.a.F.H.` [ ] ] H.J.a.X.X.x.F.H.",
"A.A.S.V.G./.t.h.h.3.U ;.1X4X:X:Xq.q.0.0.0.q.;.*.*.*.*.G Y D p.a.p.a./.F.[ ` ] ] H.H.X.X.X.X.H.H.",
"A.S.V.V.G.!.u.y.t.t.J -.6X6X:X-X0.0.q.0.q.6.J J *.*.*.-.&.G m.s.d.d.^./.] [ ` ] H.H.X.X.a.X.H.H.",
" XH.H.G.G././.`.y.t.h.4.*.J q.0.e.5.5.6.J -.J *.L.w.w.w.q.6.7.3.t.r.[.`./.H.H. XH.H.H.H.H.H.H.H.",
"H.+XH.G.F.G.H.@X} y.t.h.K J q.0.0.5.6.6.K L -.J q.0.q.q.5.6.q.l.l.t.{.)./.F.H.H.H. XH.H.H.H.H.H.",
"a.a.X.X.H.D.@.O.d.z.h.g.h.t.p p p p a q a s 7.6.: : - , : > 9 3 3 3 4 1 E.K.M.C.F.H.X.X.X.| H.H.",
"a. .a.X.D.H.X.x.a.d.r.t.y.t.u p w a w r w a 6.6.: : : - > > 3 8 8 8 4 4 E.K.W.C.H.H.@.X.X.x.H.H.",
"X.X.X.X.S.H. .@.X.a._.[.r.t.K K K K K J a w a a p p p s ; ; ; ; > > 0 4 4 4 4 1 /.H.a.a.a.x.F. X",
"X.X.X.X.H.H.| X.X.x././.u.r.H P K K K K q a a a w s a p > ; ; > > 2 0 0 0 0 0 4 `._.a. .c. .F.F.",
"J.H.H.F.H.H.H.+XH.H.F./.`.[.r.t.4.4.j.g.=.*.J J &.J a p p p p p & * & & * & 0 4 4 1 F.H.S. X XH.",
"H.H.H.H.H.H.F.F.H.H.H././._.u.r.t.3.k.<.=.*.*.-.H T q 5 i i u u # * % * % % 7 7 7 7 _./.H.D.D.S.",
"X.X. .X.H.F.[ ] ] [ D.J.a.d.f.d._.[.y.h.<.j.J H W.!.A.A.G.~.d.d.f.z.O $ $ $ $ $ * O @ X d.X.H.J.",
"X.X.a.X.H.H.] ] ] ' H.H.| X.a.a././.} y.h.,.R A !.A.V.V.D.H.c.a.x.c.X o @ O O O O @ @ X d.X.J.H.",
"X.X.@.@.F.H.[ ` ] [ D.S.@.X.X.X. XF.c.i.k k ~.@XA.S.A.S.H.J.a.X.X.X.~.@Xi.f.b.z.[.(.c.a.X.X.F.F.",
"X.X.X.X.H.H.[ ] ] ' H. XX.| X.X.H..X+.+.E E .XH.J.A.S.A.H.F.a.a.X.| D.D.@.@.x.a.~./.| | X.X.H.H.",
"J.J.H.H.H.H.H.H.H.H.H.H.H.H.H.H.H..X/ ^ ~ ( OXF.H. XH.H.H.H.|.+X XH.H.H.H././.H.H.H.H.H./.H.H.D.",
"J.H.H.H. XH.H.H.H.H.H. XH.H.H.|..XXX~ ) ~ / OX/. XF. XH.J.H.|.|.H.F.H.H.H./.F.H.H.D.H.H././.H.D.",
"@.| | X.F.H.C.C.C.C.H.F.X.X.| +./ ^ ) ~ ! W g k O.x.| X.H.D.| @.@.X.J.J.X.X.x.X.H.H.] ] { { H.H.",
"X.| X.X.H.H.B.C.C.C./.H.X.X.X.+./ ^ ~ / Q Q k k O.@.X.@.G.H.| X.X.X.G.J.X.X.X.X.H.H.] ] ] { H.H.",
"X.| X.X.H. XB.B.C.B./.H.X.X.| @.OXOXW Q l z H. XX.@.X.@.H.H.X.X.a.X.H.J.@.| X.X.H.H.] ] ] ] H.H.",
"@.| | @.S.H.A.B.C.A.H.F.X.| | @.H.H.c c c c J.J.| x.| @.H.H.X.x.x.X.H.H.| | x.| H.H.] ] ' ' D.H.",
"H.H.H.H. XH.J.J.J.J.H./.F.H.H.J. XH.G.D.F.|.H.H.H.H. XH.H.H.F.J.H.H. XH.H.H.F. XH.H.H.H.H.H.H.D.",
"H.H.H.H.H.H.H.J.J.H.F.F.H.J.J.J.D.D.G.D.|..XH.H.H.H.H.F.H.H.J.H.H.F.H.H.H.H.H.H././.H.H.H.H.J.D."
};
