/* XPM */
static const char *_0fd303b6c84103e855f36550a5343abc34dec5b30ec4d7b46e29f856b18770f[] = {
/* columns rows colors chars-per-pixel */
"48 48 42 1 ",
"  c #787457",
". c #797558",
"X c #7C785B",
"o c #7C7C7C",
"O c #9C2929",
"+ c #D32C2C",
"@ c #D76A21",
"# c #EE7524",
"$ c #8B876A",
"% c #8F8B6E",
"& c #918D70",
"* c #9B977A",
"= c #9B9879",
"- c #9C987B",
"; c #9E9A7D",
": c #9F9C7D",
"> c #A09C7F",
", c #EDDE4C",
"< c gray60",
"1 c #A19D80",
"2 c #AFAB8E",
"3 c #AFAC8D",
"4 c #B0AC8F",
"5 c #B2AE91",
"6 c #B4B093",
"7 c #B6B394",
"8 c #B7B495",
"9 c #B8B596",
"0 c #B9B598",
"q c #BBB899",
"w c #BCB89B",
"e c #BEBA9D",
"r c #BFBC9D",
"t c gray72",
"y c gray74",
"u c #C0BC9F",
"i c #FF81B2",
"p c #FF95B2",
"a c #C2BEA1",
"s c #FF95CA",
"d c gray88",
"f c #F1F1F1",
/* pixels */
";>--ue....eu-->;ew%%%%we;->;ee2552ee;>-;ee....ee",
";*1100....0011*;e0&%%&0e1*;>we5225ew>;*1ww....ww",
">;;-ea .. ae-;;>wu$%%$uw*;--we5775ew--;*ee....ee",
"-;;>00X..X00>;;-ee%%%%ee;1;;ee2442ee;;1;0e....e0",
"eweeea0eu0aweeweweeeeeew####eeewwe####0eeeewweee",
"0wewe0w0ww0e0ew0eeeeeeee####ee0ee0####ee0u0ee0u0",
";>####6556we;;>;we;;;;####ii##;;####ii##ew;;;;we",
">*####54450e;1*;ee;;;;####ii##;;####ii##we;;;;ew",
"-;####6344wr-->-ew>;##ddddppddddddddpp##ee;;;;ee",
"-1####4646wq1;;:we;;##ddddppddddddddpp##e01;;10e",
"wqw0####wwrwqwweee##dddddddddddddddddddddd0ww0ee",
"eqew####rquwrewwee##ddddddddddddddddddddddeeeeee",
"->->####->0q8688we##dddddddddd@@@@dddddddd5225we",
"->-:####=;wu7686ee##dddddddddd@@@@dddddddd5555ee",
":=:>####>:qw6888e0##dddd@@ff@@@@@@@@ff@@dd5555ww",
":::-####->qr6869ee##dddd@@ff@@@@@@@@ff@@dd54450e",
"eeew####eweeeeeeeettttdd@@,,@@@@@@@@,,@@ddtteeee",
"e0ee####eeeeeu0eewttttdd@@,,@@@@@@@@,,@@ddttwewe",
"-1-;####;;ee%$&%0e##ddddddddddddssdddddddd;;;;e0",
";;;>####;;ee%%%%ee##ddddddddddddssdddddddd;;;;ee",
";;;>dddd########eettttdddddddd##dd##dddddd<<;;ee",
"-1-;dddd########0ettttdddddddd##dd##dddddd<<;;e0",
"e0eedddddddddddd####OOOOddddddddddddddddewewwewe",
"eeewdddddddddddd####OOOOddddddddddddddddeeeeeeee",
"7979dddd##dddddddddd####OO++++++++++OO%%ee-;;-ee",
"7977dddd##dddddddddd####OO++++++++++OO$$e01;;10e",
"6977dddd####dddddddddddddddddd##,,dddd%&ee-;;-ee",
"7977dddd####dddddddddddddddddd##,,dddd%%we;;;;ew",
"0ewedddddd##ddddddddddddddddddddddddddeeeeewweee",
"wew0dddddd##ddddddddddddddddddddddddddeeeeweewee",
">;;1dddddddddddd########dddddddddddd##52we;;;;ew",
";-1;dddddddddddd########dddddddddddd##25ew>;;>we",
";-;;dddddddddddddd########dddddddd##5526ew>;;>we",
";>*;dddddddddddddd########dddddddd##5552we;;;;ew",
"0ee0iidddddddddddddddd####dddddddd##eeuueeweewee",
"eeeeiidddddddddddddddd####dddddddd##e000eeewweee",
";>*;####dddddddddddddddddddddddddddd;;1;we;;;;ew",
";;;;####dddddddddddddddddddddddddddd*-;;ee-;;-ee",
">*>>0w####dddddddddddddddddddddddddd1>*-e01;;10e",
";;;;ee####dddddddddddddddddddddddddd;;1-ee-;;-ee",
"eewewwee######yyyyyyeeddddddee######weeeeeweewee",
"weewuewe######yyyyyyewddddddee######ee0eweeeeeew",
">-;;0e55######->yyyy..ddddddee######;-1-ee%%%%ee",
";;;;ee45######;;yyyy..ddddddwe######>;;;ee%%%%ee",
";;;;ee4554oooo;;oooo..eeoooowe;;oooo>;;;ee%%%%ee",
">-;;0e5555oooo->oooo..wwooooee;>oooo;-1-ee%%%%ee",
"weewueweeweuweeweeweeweee0eeeeewweeeee0eweeeewew",
"eewewweeeewweweeeeeeeeeeeeeweeweeweeweeeeeweewee"
};
