/* XPM */
static const char *_fa3080aecb2b621f42f9cfea2d0a4c0e2db3b017e4285a0e13d19ae8471d3b4[] = {
/* columns rows colors chars-per-pixel */
"48 48 42 1 ",
"  c #787457",
". c #797558",
"X c #7C785B",
"o c #7C7C7C",
"O c #9C2929",
"+ c #D32C2C",
"@ c #D76A21",
"# c #EE7524",
"$ c #8B876A",
"% c #8F8B6E",
"& c #918D70",
"* c #9B977A",
"= c #9B9879",
"- c #9C987B",
"; c #9E9A7D",
": c #9F9C7D",
"> c #A09C7F",
", c #EDDE4C",
"< c gray60",
"1 c #A19D80",
"2 c #A3A081",
"3 c #AFAB8E",
"4 c #AFAC8D",
"5 c #B0AC8F",
"6 c #B2AE91",
"7 c #B4B093",
"8 c #B6B394",
"9 c #B8B596",
"0 c #B9B598",
"q c #BBB899",
"w c #BCB89B",
"e c #BEBA9D",
"r c #BFBC9D",
"t c gray72",
"y c gray74",
"u c #C0BC9F",
"i c #FF81B2",
"p c #FF95B2",
"a c #C2BEA1",
"s c #FF95CA",
"d c gray88",
"f c #F1F1F1",
/* pixels */
";>--ue....eu-->;ew%%%%we;->;ee3663ee;>-;ee....ee",
";*1100....0011*;e0&%%&0e1*;>we6336ew>;*1ww....ww",
">;;-ea .. ae-;;>wu$%%$uw*;--we6886ew--;*ee....ee",
"-;;>00X..X00>;;-ee%%%%ee;1;;ee3553ee;;1;0e....e0",
"eweeea0eu0aw####weeeee####w0eeewweee0w0eeeewweee",
"0wewe0w0ww0e####eeeeee####e0ee0ee0ee0eee0u0ee0u0",
";>;;ew7667##ii####;;##ii####ee;;;;ee>->-ew;;####",
">*1;w06556##ii####;;##ii####0e;;;;e0>;;;we;;####",
"-;-:rw7455##ppddddddddppdddd##;;;;e0;1*;ee;;####",
"-1;>ww5757##ppddddddddppdddd##;;->ee;-;>e01;####",
"wqw0wrwwdddddddddddddddddddddd##ue0e0ee0ee####ee",
"eqewwuwwdddddddddddddddddddddd##weeaeeeeee####ee",
"->->00:>dddddddd@@@@dddddddddd##;;we-*>;ew####we",
"->-:re--dddddddd@@@@dddddddddd##1;ee;;>;ee####ee",
":=:>002;dd@@ff@@@@@@@@ff@@dddd##*;0w1>-;ww####ww",
":::-rw:-dd@@ff@@@@@@@@ff@@dddd##>;we;->-e0####0e",
"eeeweettdd@@,,@@@@@@@@,,@@ddtttteeeeweeeee####ee",
"e0eeeettdd@@,,@@@@@@@@,,@@ddttttee0wewueew####we",
"-1-;ee;>ddddddddssdddddddddddd##..ee;;;;0e####e0",
";;;>we;;ddddddddssdddddddddddd##..ww>;;;ee####ee",
";;;>we<<dddddd##dd##ddddddddtttt..########ddddee",
"-1-;ee<<dddddd##dd##ddddddddtttt..########dddde0",
"e0eeeeeweeddddddddddddddddOOOO####ddddddddddddwe",
"eeeweeweewddddddddddddddddOOOO####ddddddddddddee",
"8989we>;>;weOO++++++++++OO####dddddddddd##ddddee",
"8988ee***;0wOO++++++++++OO####dddddddddd##dddd0e",
"7988ee;11;eedddd,,##dddddddddddddddddd####ddddee",
"8988w0;-;;wedddd,,##dddddddddddddddddd####ddddew",
"0eweuuweweeadddddddddddddddddddddddddd##ddddddee",
"wew0wwweue0edddddddddddddddddddddddddd##ddddddee",
">;;10e1-->ee##dddddddddddd########ddddddddddddew",
";-1;0e*>;;e0##dddddddddddd########ddddddddddddwe",
";-;;0e*>>*e0;;##dddddddd########ddddddddddddddwe",
";>*;ee;**;ee;*##dddddddd########ddddddddddddddew",
"0ee0wwwaawww0e##dddddddd####ddddddddddddddddiiee",
"eeeeee0000eeee##dddddddd####ddddddddddddddddiiee",
";>*;e0&%%&0e;*dddddddddddddddddddddddddddd####ew",
";;;;ee%%%%ee;;dddddddddddddddddddddddddddd####ee",
">*>>0w%$$%w0>>dddddddddddddddddddddddddd####;10e",
";;;;ee%%%%ee;;dddddddddddddddddddddddddd####;-ee",
"eewewweeeewwew######eeddddddeeyyyyyy######weewee",
"weewueweeweuwe######ewddddddeeyyyyyy######eeeeew",
">-;;0e6666e0;;######..ddddddeeyyyyee######%%%%ee",
";;;;ee5665ee;;######..ddddddweyyyyew######%%%%ee",
";;;;ee5665ee;;oooo....oooo;>weooooewooooee%%%%ee",
">-;;0e6666e0;;oooo....oooo-;eeooooeeooooee%%%%ee",
"weewueweeweuweeweeweeweee0eeeeewweeeee0eweeeewew",
"eewewweeeewweweeeeeeeeeeeeeweeweeweeweeeeeweewee"
};
