/* XPM */
static char *a163380e26cb4b419218fca8868fb5a07EhRpTMVKcWKpzEV[] = {
/* columns rows colors chars-per-pixel */
"48 48 182 2 ",
"   c #2D1918",
".  c #321E1F",
"X  c #3F1918",
"o  c #4B181D",
"O  c #581F28",
"+  c #4E252B",
"@  c #542327",
"#  c #582627",
"$  c #59212A",
"%  c #692F2B",
"&  c #653E43",
"*  c #723A42",
"=  c #694447",
"-  c #74414A",
";  c #78404B",
":  c #704D4C",
">  c #6D4D52",
",  c #7F4B53",
"<  c #7A5355",
"1  c #787457",
"2  c #797558",
"3  c #7C785B",
"4  c #83444C",
"5  c #88474B",
"6  c #87494E",
"7  c #8A4C4F",
"8  c #81514B",
"9  c #854B52",
"0  c #8A4B54",
"q  c #8C4E59",
"w  c #924C56",
"e  c #954D58",
"r  c #85565C",
"t  c #8B525C",
"y  c #925C52",
"u  c #94545A",
"i  c #92595F",
"p  c #9B585F",
"a  c #925660",
"s  c #925B66",
"d  c #B05E6C",
"f  c #8D6267",
"g  c #926265",
"h  c #956068",
"j  c #97696C",
"k  c #9C6B72",
"l  c #A6656B",
"z  c #A96572",
"x  c #B16571",
"c  c #B56E76",
"v  c #B76F7D",
"b  c #A5777D",
"n  c #AB747A",
"m  c #A7787E",
"M  c #A97B7E",
"N  c #B47677",
"B  c #B4727E",
"V  c #BC737E",
"C  c #B57A7E",
"Z  c #C0727F",
"A  c #8B876A",
"S  c #8F8B6E",
"D  c #908C6F",
"F  c #848372",
"G  c #918D70",
"H  c #9B977A",
"J  c #9E9A7D",
"K  c #BC8076",
"L  c #A09C7F",
"P  c #AE7480",
"I  c #AF7C85",
"U  c #B77380",
"Y  c #BA7482",
"T  c #B37C83",
"R  c #BC7C83",
"E  c #B47F8C",
"W  c #BC7D89",
"Q  c #C37380",
"!  c #C17A85",
"~  c #C97986",
"^  c #C37C8A",
"/  c #CB7D8B",
"(  c #D37F8C",
")  c #949B81",
"_  c #AB8589",
"`  c #B58287",
"'  c #B88780",
"]  c #B6888C",
"[  c #A19D80",
"{  c #BB9394",
"}  c #BF979A",
"|  c #B79A9B",
" . c #A3A081",
".. c #A3A088",
"X. c #AAA48B",
"o. c #AFAB8E",
"O. c #B0AC8F",
"+. c #ACAB92",
"@. c #B2AE91",
"#. c #B5B294",
"$. c #B8B596",
"%. c #B9B598",
"&. c #BDB99C",
"*. c #C2828C",
"=. c #CB828C",
"-. c #C7888B",
";. c #CE8B8E",
":. c #D2818F",
">. c #D3998E",
",. c #C68490",
"<. c #CB8592",
"1. c #C78B94",
"2. c #CB8A93",
"3. c #CE8E9E",
"4. c #D48693",
"5. c #D38B94",
"6. c #DB8893",
"7. c #D58E9B",
"8. c #DC8C9C",
"9. c #C79397",
"0. c #CC9199",
"q. c #CE9B9D",
"w. c #DE9493",
"e. c #DD9891",
"r. c #D3919A",
"t. c #DA939E",
"y. c #DFA49C",
"u. c #C0BC9F",
"i. c #E5A79A",
"p. c #E9A799",
"a. c #E7A99A",
"s. c #C49FA6",
"d. c #CA9CA2",
"f. c #D697A2",
"g. c #DC9CA3",
"h. c #D69DA8",
"j. c #E596A5",
"k. c #E39AA6",
"l. c #E69EAB",
"z. c #CCA2A6",
"x. c #CEA6AB",
"c. c #D7A6A2",
"v. c #DFA9A7",
"b. c #DCA3A9",
"n. c #DAA9AC",
"m. c #C2BEA1",
"M. c #D9A3B0",
"N. c #E4A3A7",
"B. c #EEABA3",
"V. c #E3A4AC",
"C. c #EBA4AD",
"Z. c #EDA9AF",
"A. c #F3B5AA",
"S. c #F2B8AD",
"D. c #E2A2B0",
"F. c #E8A6B2",
"G. c #E5AAB1",
"H. c #ECABB3",
"J. c #E4AFB9",
"K. c #F0ABB5",
"L. c #E1B6B0",
"P. c #ECB1B6",
"I. c #EFBAB2",
"U. c #ECB4BB",
"Y. c #E6BCBE",
"T. c #E8BABC",
"R. c #F1B0B4",
"E. c #F5BCB7",
"W. c #F2B5BD",
"Q. c #F4BFBB",
"!. c #FAC0B5",
"~. c #F3BDC2",
"^. c #FBBDC0",
"/. c #FFBFCA",
"(. c #EFC6CA",
"). c #FFC2C5",
"_. c #FCCDC7",
"`. c #FEC5CE",
"'. c #FFC8CB",
"]. c #FFCDD6",
"[. c #FFD1D3",
"{. c #FFD2DA",
/* pixels */
"J L H H u.&.2 2 2 2 &.u.H H L J &.&.S S S S &.&.J H L J &.&.o.@.@.o.&.&.J L H J &.&.2 2 2 2 &.&.",
"J H [ [ %.%.2 2 2 2 %.%.[ [ H J &.%.G S S G %.&.[ H J L &.&.@.o.o.@.&.&.L J H [ &.&.2 2 2 2 &.&.",
"L J J H &.m.1 2 2 1 m.&.H J J L &.u.A S S A u.&.H J H H &.&.@.#.#.@.&.&.H H J H &.&.2 2 2 2 &.&.",
"H J J L %.%.3 2 2 3 %.%.L J J H &.&.S S S S &.&.J [ J J &.&.o.O.O.o.&.&.J J [ J %.&.2 2 2 2 &.%.",
"&.&.&.&.&.m.%.&.u.%.m.&.&.&.&.&.&.&.&.&.%.&.&.%.&.%.&.%.&.&.&.&.&.&.&.&.%.&.%.&.&.&.&.&.&.&.&.&.",
"%.&.&.&.&.%.&.%.&.&.%.&.%.&.&.%.&.&.&.&.&.&.&.&.&.&.&.%.&.&.%.&.&.%.&.&.%.&.&.&.%.u.%.&.&.%.u.%.",
"J L J J &.&.#.@.@.#.&.&.J J L J &.&.J J J O O O O O O O &.&.J J J J &.&.L H L H &.&.J J J J &.&.",
"L H [ J &.%.@.O.O.@.%.&.J [ H J &.&.J J O : < g g T k f O &.J J J J &.%.L J J J &.&.J J J J &.&.",
"H J H J &.&.#.o.O.O.&.&.H H J H &.+.$ O O 0.N.R.).'.{.W.f O O J J J &.%.J [ H J &.&.J J J J &.&.",
"H [ J L &.&.O.#.O.#.&.%.[ J J J &.&.$ C R 5.5.;.;.;.r.7.H.P.] O H L &.&.J H J L &.%.[ J J [ %.&.",
"&.%.&.%.&.&.&.&.&.&.&.&.%.&.&.&.O O y.E.Q.v.N 5 7 4 6 *.g.~.[.{ O &.%.&.%.&.&.%.&.&.%.&.&.%.&.&.",
"&.%.&.&.&.u.&.&.&.%.u.&.&.&.@.O 8 A.y.E._.L.X X . . . M 0.V.[.T.b O &.m.&.&.&.&.&.&.&.&.&.&.&.&.",
"H L H L %.%.J L H L %.%.$.#.$.O y i.S.I.c.X o.&.J [ J   r g.1.U.[.} O &.H H L J &.&.@.o.o.@.&.&.",
"H L H J &.&.H H H J &.u.#.#.X.O K a.!.' X H &.&.J J J H . q *.g.P.n.j O J J L J &.&.@.@.@.@.&.&.",
"J H J L %.%. .J L J %.&.#.$.O g.B.p.>.X X [ %.&.J H J J &.. V <.1.q.j O [ L H J &.&.@.@.@.@.&.&.",
"J J J H &.&.J H H L %.&.#.$.O V w.e.% X J H &.&.H L J J &.. ,.k.P.[.P.` O H L H &.%.@.O.O.@.%.&.",
"&.&.&.&.&.&.&.&.&.&.&.&.&.&.O ~ 6.=.# X &.&.&.&.&.&.&.&.&.. 9 c g.^.P.q.O &.&.&.&.&.&.&.&.&.&.&.",
"&.%.&.&.&.&.&.&.&.&.&.&.&.u.O Q :.! @ X &.&.&.&.&.u.&.&.&.%.. 4 4.g.V.b.O &.u.&.&.&.&.&.&.&.&.&.",
"H [ H J &.&.J L J J &.&.S A O =.j.K.o X J J &.%.J J J J &.&.. 0 5.Z.K.h.O J J J %.&.J J J J &.%.",
"J J J L &.&.J J J J &.&.S S O , v t.n X J J &.&.J J J L &.&.. , r.7.C.G.O J J J &.&.J J J J &.&.",
"J J J L &.&.J J J J &.&.S S S O 4 <.].m X J &.&.J J J L &.&.. > *.4.j.l.O J J J &.&.J J J J &.&.",
"H [ H J &.&.J L J J &.&.S A G S O g.,.P.| X = %.J J J J &.&.2 . . ~ 8.<.O J J J %.&.J J J J &.%.",
"&.%.&.&.&.&.&.&.&.&.&.&.&.u.%.&.O - ,.H.~.M r & &.u.&.&.&.%.&.&.. Y 8.<.O &.u.&.&.&.&.&.&.&.&.&.",
"&.&.&.&.&.&.&.&.&.&.&.&.&.&.&.&.&.O s 2.F./.K.m & &.&.&.&.&.&.&.O T ^ E O &.&.&.&.&.&.&.&.&.&.&.",
"#.$.#.$.&.&.L J L J &.&.J H L H &.&.O t j./ k.G.(.& J J &.%.J J J O O O A S S S &.&.H J J H &.&.",
"#.$.#.#.&.&.H H H J %.&.[ L H J &.%.[ O ; 4 B b.U.z.& J &.&.J H J [ %.%.G G A A &.%.[ J J [ %.&.",
"#.$.#.#.&.&.J [ [ J &.&.O O O O &.&.H J O O O *.f.`.x.& &.&.J [ J J u.&.S S S G &.&.H J J H &.&.",
"#.$.#.#.&.%.J H J J &.O W 3.M.s.O &.J J J J &.O 1.r.0._ & %.J J J L %.%.D A S S &.&.J J J J &.&.",
"%.&.&.&.u.u.&.&.&.&.O a ^ 7.D.J.9.O @.&.&.&.&.&.O z 7.W.z.& &.%.&.&.&.u.&.&.&.&.&.&.&.&.&.&.&.&.",
"&.&.&.%.&.&.&.&.u.O * 7.! R U *.H.d.O @.&.&.&.&.&.O 1.g.U.Y.& &.&.&.&.&.&.&.&.&.&.&.&.&.&.&.&.&.",
"L J J [ %.&.[ H O Y 4.! X X X <.:.! U.O J J &.&.J L O ^ 5.r.& J J J &.&.O.o.@.o.&.&.J J J J &.&.",
"J H [ J %.&.H L O ^ x X J [ H X d 6.V.- O L &.&.J H O R 4.=.C & J H &.%.@.#.o.@.&.&.L J J L &.&.",
"J H J J %.&.H L O <.9 O J J H X 0 ( 8.9 O L &.&.J H O I ! =.].& J H m.%.@.@.o.#.&.&.L J J L &.&.",
"J L H J &.&.J H O 5.9 O J H L J X 4.4.t.h.O +.&.L J J + q <.H.& L J &.&.@.@.@.o.&.&.J J J J &.&.",
"%.&.&.%.&.&.&.m.O ! V O %.&.&...X u Z 8.h.O &.&.&.&.&.O 9 t.Z.O &.&.&.%.&.&.u.u.&.&.&.&.&.&.&.&.",
"&.&.&.&.&.&.%.%.O h k.H.O &.&.&.X X ! 4.<.O &.&.%.&.&.O i t.1.O &.&.&.&.&.%.%.%.&.&.&.&.&.&.&.&.",
"J L H J &.%.G S F O q 7.E O L J X.X W 4./ H.O O O O O T r.H.t.$ J J %.&.J J [ J &.&.J J J J &.&.",
"J J J J &.&.S S S S O O O J J J &.&.X z 4.8.R u l p e k.V.0.a O J J u.&.H H J J &.&.H J J H &.&.",
"L H L L %.&.S A A S &.%.L L H L &.%.X X ,./ =.t.H.C.t.l.7.P O H J J &.&.[ L H H &.%.[ J J [ %.&.",
"J J J J &.&.S S S S &.&.J J J J &.&.H J X -.5.4.2.2.=.t.s O L J L J %.&.J J [ H &.&.H J J H &.&.",
"&.&.&.&.&.&.&.&.&.&.&.&.&.&.&.&.&.&.&.&.X < 9 4 w u q t O &.&.&.&.&.&.&.&.&.&.&.&.&.&.&.&.&.&.&.",
"&.&.&.&.u.&.&.&.&.&.&.u.&.&.&.&.&.&.&.&.&.X O O O O O O &.&.&.&.&.&.&.&.&.&.%.&.&.&.&.&.&.&.&.&.",
"L H J J %.&.@.@.@.@.&.%.J J H L &.&.2 2 2 2 &.&.H [ H J &.&.J L ) J &.&.J H [ H &.&.S S S S &.&.",
"J J J J &.&.O.@.@.O.&.&.J J J J &.&.2 2 2 2 &.&.J J J L &.&.) J J J &.&.L J J J &.&.S S S S &.&.",
"J J J J &.&.O.@.@.O.&.&.J J J J &.&.2 2 2 2 &.&.J J J L &.&.J J J J &.&.L J J J &.&.S S S S &.&.",
"L H J J %.&.@.@.@.@.&.%.J J H L &.&.2 2 2 2 &.&.H [ H J &.&.J L L J &.&.J H [ H &.&.S S S S &.&.",
"&.&.&.&.u.&.&.&.&.&.&.u.&.&.&.&.&.&.&.&.&.&.&.&.&.%.&.&.&.&.&.&.&.&.&.&.&.&.%.&.&.&.&.&.&.&.&.&.",
"&.&.&.&.&.%.&.&.&.&.&.&.&.&.&.&.&.&.&.&.&.&.&.&.&.&.&.&.&.&.&.&.&.&.&.&.&.&.&.&.&.&.&.&.&.&.&.&."
};
