/* XPM */
static char *rcp24967152130123404[] = {
/* columns rows colors chars-per-pixel */
"48 48 40 1 ",
"  c #192133",
". c #1E2638",
"X c #3E465A",
"o c #787457",
"O c #797558",
"+ c #7C785B",
"@ c #535B70",
"# c #565E73",
"$ c #5A6277",
"% c #8B876A",
"& c #8F8B6E",
"* c #918D70",
"= c #9B977A",
"- c #9B9879",
"; c #9C987B",
": c #9E9A7D",
"> c #9F9C7D",
", c #A09C7F",
"< c #70788E",
"1 c #A19D80",
"2 c #A3A081",
"3 c #AFAB8E",
"4 c #AFAC8D",
"5 c #B0AC8F",
"6 c #B2AE91",
"7 c #B4B192",
"8 c #B4B093",
"9 c #B6B394",
"0 c #B8B596",
"q c #B9B598",
"w c #BBB899",
"e c #BCB89B",
"r c #BEBA9D",
"t c #BFBC9D",
"y c #9FA7AE",
"u c #A4ACB2",
"i c #C0BC9F",
"p c #C2BEA1",
"a c #B4BDC3",
"s c #B8C0C6",
/* pixels */
":,;;irOOOOri;;,:re&&&&er:;,:rr3663rr:,;:rrOOOOrr",
":=11qqOOOOqq11=:rq*&&*qr1=:,er6336re,:=1eeOOOOee",
",::;rpoOOopr;::,ei%&          6996re;;:=rrOOOOrr",
";::,qq+OO+qq,::;rr&&          3553rr::1:qrOOOOrq",
"rerrrpqriqperrerer  <<<<<<<<<<  errrqeqrrrreerrr",
"qererqeqeeqrqreqrr  <<<<<<<<<<  rqrrqrrrqiqrrqiq",
":,::re8668er      <<<<      <<<<      ,;re::::er",
",=1:eq6556qr      <<<<      <<<<      ::er::::re",
";:;>te8455..<<<<  <<  uussuu  <<  <<<<  rr::::rr",
";1:,ee5858..<<<<  <<  uussuu  <<  <<<<  rq1::1qr",
"eweqetee  <<ssuu      uuuuuu      uuss<<  qeeqrr",
"rwreeiee  <<ssuu      uuuuuu      uuss<<  rrrrrr",
";,;,qq>,  <<uussuuuuuuuuuuuuuuuuuussuu<<  6336er",
";,;>tr;;  <<uussuuuuuuuuuuuuuuuuuussuu<<  6666rr",
">->,qq2:    <<<<<<uuuuuuuuuuuuuu<<<<<<    6666ee",
">>>;te>;    <<<<<<uuuuuuuuuuuuuu<<<<<<    6556qr",
"rrrerrer  XX      <<<<<<<<<<<<<<      XX  rrrrrr",
"rqrrrrre  XX      <<<<<<<<<<<<<<      XX  reerer",
";1;:rr:,::  @@@@@@              @@@@@@  qr::::rq",
":::,er::::  @@@@@@              @@@@@@  rr::::rr",
":::,er::::        <<<<<<<<<<<<<<        rr::::rr",
";1;:rr:,::        <<<<<<<<<<<<<<        qr::::rq",
"rqrrrrrerr  XX@@@@              @@$@XX  rereerer",
"rrrerrerre  XX@@@@              @@$@XX  rrrrrrrr",
"9090er,:,:  XXuu@@<<<<<<<<<<<<<<@@uuXX  rr;::;rr",
"9099rr===:  XXuu@@<<<<<<<<<<<<<<#@uuXX  rq1::1qr",
"8099rr:11:  XXuu@@<<uu<<uu<<uu<<@@uuXX  rr;::;rr",
"9099eq:;::  XXuu@@<<uu<<uu<<uu<<@@yuXX  er::::re",
"qreriierer  XXuu@@<<uu<<uu<<uu<<@@uuXX  rrreerrr",
"ereqeeerir  XXuu@@<<uu<<uu<<uu<<@@uuXX  rrerrerr",
",::1qr1;;,rr  uu@@<<uu<<uu<<uu<<@@uu  63er::::re",
":;1:qr=,::rq  uu@@<<uu<<uu<<uu<<@@uu  36re,::,er",
":;::qr=,,=rq  uu@@<<uu<<uu<<uu<<@@uu  38re,::,er",
":,=:rr:==:rr  uu@@<<uu<<uu<<uu<<@@uu  63er::::re",
"qrrqeeeppeee  uu@@<<uu<<uu<<uu<<@@uu  iirrerrerr",
"rrrrrrqqqqrr  uu@@<<uu<<uu<<uu<<@@uu  qqrrreerrr",
":,=:rq*&&*qr  ss@@<<uu<<uu<<uu<<@@ss  1:er::::re",
"::::rr&&&&rr  ss@@<<uu<<uu<<uu<<@@ss  ::rr;::;rr",
",=,,qe&%%&eq  ss@@<<ss<<ss<<ss<<@@ss  =;rq1::1qr",
"::::rr&&&&rr  aa@@<<ss<<ss<<ss<<@@ss  1;rr;::;rr",
"rrereerrrree  @@@@<<ss<<ss<<ss<<@@@@  rrrrerrerr",
"erreirerreri  @@@@<<ss<<ss<<aa<<@@@@  qrerrrrrre",
",;::qr6666rq::    <<<<<<<<<<<<<<    :;1;rr&&&&rr",
"::::rr5665rr::    <<<<<<<<<<<<<<    ,:::rr&&&&rr",
"::::rr5665rr::::rr              ::re,:::rr&&&&rr",
",;::qr6666rq::;,ee              ,:rr:;1;rr&&&&rr",
"erreirerrerierrerrerrerrrqrrrrreerrrrrqrerrrrere",
"rrereerrrreererrrrrrrrrrrrrerrerrerrerrrrrerrerr"
};
