/* XPM */
static char *rcp14409292100443076[] = {
/* columns rows colors chars-per-pixel */
"48 48 196 2 ",
"   c #000206",
".  c #000710",
"X  c #1A1217",
"o  c #1B0F24",
"O  c #1B0E2A",
"+  c #140E29",
"@  c #1C1124",
"#  c #19122B",
"$  c #150C33",
"%  c #1B0E35",
"&  c #141132",
"*  c #1B1334",
"=  c #181139",
"-  c #270929",
";  c #0F2C37",
":  c #162A33",
">  c #1A2B35",
",  c #142D3A",
"<  c #1B2D3A",
"1  c #1C2638",
"2  c #16313A",
"3  c #1F2A26",
"4  c #33332E",
"5  c #242736",
"6  c #2A323E",
"7  c #283A3E",
"8  c #32343B",
"9  c #363638",
"0  c #242E26",
"q  c #372E4A",
"w  c #372F43",
"e  c #2D3443",
"r  c #283C47",
"t  c #343243",
"y  c #313349",
"u  c #383D4D",
"i  c #3B3F40",
"p  c #3B3E51",
"a  c #303E58",
"s  c #403F51",
"d  c #1E4542",
"f  c #214245",
"g  c #234048",
"h  c #3B414D",
"j  c #384349",
"k  c #2F4159",
"l  c #344153",
"z  c #3B4153",
"x  c #384559",
"c  c #3B4461",
"v  c #7B5F51",
"b  c #4A615B",
"n  c #506252",
"m  c #796354",
"M  c #797657",
"N  c #7A7758",
"B  c #7B785A",
"V  c #55536E",
"C  c #5C5372",
"Z  c #625066",
"A  c #674C72",
"S  c #605170",
"D  c #634D64",
"F  c #4D716F",
"G  c #5B716F",
"H  c #5F6A7C",
"J  c #4C7372",
"K  c #547775",
"L  c #577678",
"P  c #476565",
"I  c #6C6C6C",
"U  c #746E68",
"Y  c #6F716E",
"T  c #626C76",
"R  c #6C6C75",
"E  c #656B7D",
"W  c #6C6C7C",
"Q  c #676678",
"!  c #716A7B",
"~  c #736A76",
"^  c #65717C",
"/  c #6C727D",
"(  c #687478",
")  c #72707B",
"_  c #895E4E",
"`  c #AA6F69",
"'  c #BB6B6A",
"]  c #B76B66",
"[  c #AB736B",
"{  c #A97264",
"}  c #C4666A",
"|  c #8E8B6C",
" . c #918E6F",
".. c #89827D",
"X. c #9A9779",
"o. c #9D9A7C",
"O. c #979477",
"+. c #A09D7E",
"@. c #646C81",
"#. c #6B6D82",
"$. c #746882",
"%. c #6C7183",
"&. c #657183",
"*. c #727483",
"=. c #7C799C",
"-. c #75799E",
";. c #857E8D",
":. c #857E96",
">. c #5F8882",
",. c #65878B",
"<. c #638A87",
"1. c #7D848E",
"2. c #7D8493",
"3. c #7C8A95",
"4. c #738D9E",
"5. c #7B8B9D",
"6. c #75809C",
"7. c #71919E",
"8. c #7F919F",
"9. c #6C8C9B",
"0. c #758CA3",
"q. c #7B8BA3",
"w. c #7A87A4",
"e. c #7492A3",
"r. c #858585",
"t. c #898782",
"y. c #84828B",
"u. c #8A848C",
"i. c #868A88",
"p. c #928F8E",
"a. c #99968D",
"s. c #838294",
"d. c #898394",
"f. c #85829A",
"g. c #898598",
"h. c #838D9A",
"j. c #918F93",
"k. c #A29E80",
"l. c #A4A081",
"z. c #AEAB8C",
"x. c #B1AE8F",
"c. c #ABA890",
"v. c #B2AF91",
"b. c #B5B293",
"n. c #B9B697",
"m. c #BAB799",
"M. c #BDBA9B",
"N. c #8288A5",
"B. c #908CAD",
"V. c #8995AF",
"C. c #8E95B2",
"Z. c #9394B0",
"A. c #AD92A8",
"S. c #AC8EB4",
"D. c #A793B6",
"F. c #9CADBB",
"G. c #9BB7BD",
"H. c #A3ABB8",
"J. c #A8B5BB",
"K. c #B7BBBA",
"L. c #D99596",
"P. c #C0BD9E",
"I. c #DA94A5",
"U. c #C2BEA1",
"Y. c #B89EC5",
"T. c #97ADC5",
"R. c #9CAEC4",
"E. c #9DAEC9",
"W. c #9AB2C4",
"Q. c #9CB1C9",
"!. c #9AB7C4",
"~. c #A6AEC1",
"^. c #A6BDCD",
"/. c #ACBDCC",
"(. c #A5B7C7",
"). c #B3BCC5",
"_. c #B2BDCB",
"`. c #BFB7C6",
"'. c #A7BCD3",
"]. c #ABBDD3",
"[. c #ADBEDA",
"{. c #B2BCD4",
"}. c #B1B7D1",
"|. c #B4A3C5",
" X c #C3AAC8",
".X c #CBADD3",
"XX c #C3B6C8",
"oX c #A5C2CD",
"OX c #AEC1CB",
"+X c #ACCCCA",
"@X c #B4CBCE",
"#X c #AAC0D5",
"$X c #AEC1DA",
"%X c #B2C2D9",
"&X c #F3FFFF",
"*X c #F9FFFF",
/* pixels */
"o.+.o.o.P.M.M M M M M.U.o.o.+.o.M.M.| | | | M.M.o.o.+.o.M.M.z.b.b.z.M.M.o.+.o.o.M.M.M M M M M.M.",
"o.X.k.k.n.n.M M M M n.n.k.k.X.o.M.n. .| |  .n.M.k.X.o.+.M.M.x.z.z.x.M.M.+.o.X.k.M.M.B B B B M.M.",
"+.o.o.o.M.U.M M M M U.M.o.o.o.k.M.P.| | | | P.M.X.o.o.o.M.M.x.b.b.x.M.M.o.o.o.X.M.M.M M M M M.M.",
"o.o.o.+.n.n.B M M B n.n.k.o.o.o.M.M.| | | | M.M.o.l.o.o.M.M.z.x.x.z.M.M.o.o.l.o.m.M.M B B M M.m.",
"M.M.M.M.M.U.n.M.U.n.U.M.M.M.M.M.M.M.M.M.M.M.M.M.M.m.M.m.M.M.M.M.M.M.M.M.m.M.m.M.M.M.M.M.M.M.M.M.",
"n.M.M.M.M.n.M.n.M.M.n.M.n.M.M.n.M.M.M.M.M.M.M.M.M.M.M.m.M.M.n.M.M.n.M.M.m.M.M.M.m.P.n.M.M.n.P.m.",
"o.k.o.o.M.M.b.v.v.b.M.M.o.o.+.o.M.M.o.o.o.o.M.M.o.+.o.+.M.M.o.o.U R ).OX/._.).K.M.M.o.o.o.o.M.M.",
"k.X.k.o.M.n.v.v.v.v.n.M.o.k.X.o.M.M.o.o.o.o.M.M.o.o.o.+.m.M.o.o.~ W /.^.].'.].).M.M.o.o.o.o.M.M.",
"o.o.o.o.M.M.v.z.x.x.M.M.o.o.+.o.M.M.+.o.o.+.M.M.o.X.+.o.m.P.U Y ! W &X&X  . /.`.L.L.o.o.o.o.M.M.",
"o.k.o.+.M.M.x.v.x.b.M.m.k.o.o.o.M.M.o.o.o.o.M.M.o.+.o.o.M.M.I R W W *X*X    _.XXI.I.+.o.o.+.n.M.",
"M.m.M.n.M.M.M.M.M.M.M.M.m.M.M.M.M.M.M.M.M.M.M.M.M.M.M.n.M.m.I *.W / s.s.d.d.s.:.- - 5 3 M.m.M.M.",
"M.m.M.M.M.P.M.M.M.m.P.M.M.M.M.M.M.M.M.M.M.M.M.M.M.M.M.M.U.M.( T T ^ f.f.d.;.g.g.# + 5 0 M.M.M.M.",
"o.+.o.+.n.n.o.+.o.+.n.m.n.b.n.n.M.M.o.o.o.o.M.M.o.+.o.o.M.n.G ^ @X@XW #.s.s.s.r.M.M.x.z.z.x.M.M.",
"o.+.o.o.M.M.o.o.X.o.M.P.b.b.n.b.M.M.o.o.o.o.M.M.o.o.o.o.M.M.G L +X+X^ ^ 2.s.g.u.M.M.x.v.v.x.M.M.",
"o.X.o.+.n.n.l.o.+.o.n.M.b.n.n.b.M.m.+.o.o.+.m.M.o.X.o.o.n b K J >.<.G.(./ !  X XM.M.x.x.x.x.M.M.",
"o.o.o.o.M.M.o.o.o.+.m.M.b.n.b.n.M.M.o.o.o.o.M.M.o.+.o.o.b P F K ,.,.!./.W $..X XM.m.b.x.x.b.m.M.",
"M.M.M.M.M.M.M.M.M.M.M.M.M.M.M.M.M.M.M.M.M.M.M.M.M.M.M.M.7 f d f 5.q.6.=.|.Y.S.A.M.M.M.M.M.M.M.M.",
"M.m.M.M.M.M.M.M.M.M.M.M.M.P.n.M.M.M.M.M.M.M.M.M.M.M.m.M.r r f g q.N.-.=.Y. XS.A.M.M.M.M.M.M.M.M.",
"X.k.o.o.M.M.o.+.o.o.M.M.| |  .| m.M.o.o.o.o.M.m.o.o.J./.].#X^.].x c C.B.D.S.A D m.M.o.o.o.o.M.m.",
"o.o.o.+.M.M.o.o.o.o.M.M.| | | | M.M.o.o.o.o.M.M.o.o./.[.'.].#X'.k a V.Z.D.S.A Z n.M.o.o.o.o.M.M.",
"o.o.o.+.M.M.o.o.o.o.M.M.| | | | M.M.o.o.o.o.H.~.F.J.R.E.[.#XoXoX#X].].}.C S ! ! y.t.o.o.o.o.M.M.",
"X.k.o.o.M.M.o.+.o.o.M.M.| |  .| m.M.o.o.o.o.H.E.Q.R.R.R.].'.oX^.^.].].{.V V ! ! s.u.o.o.o.o.M.m.",
"M.m.M.M.M.M.M.M.M.M.M.M.M.P.n.M.M.M.M.M.M.M.J.R.W.W.R.(.F.Q.Q.(.].^.#X]./._.#.E f.y.M.M.M.M.M.M.",
"M.M.M.M.M.M.M.M.M.M.M.M.M.M.M.M.M.M.M.M.M.M.H.F.W.W.W.F.W.R.E.E.].$X].^././.@.#.f.y.M.M.M.M.M.M.",
"b.n.b.n.M.M.+.o.+.o.M.M.o.o.+.o.M.M.o.o.i.3.5.5.0.0.7.7.W.Q.E.E.E.Q.'.'./.OX@.#.f.u.o.o.o.o.M.M.",
"b.n.b.n.M.M.X.X.X.o.m.M.+.+.o.o.M.m.+.o.3.q.5.q.q.0.e.9.Q.E.R.R.T.E.$X%X/./.@.#.:.u.+.o.o.+.m.M.",
"b.n.n.b.M.M.o.l.k.o.M.M.o.o.+.o.M.M.Y / E #.#.#.#.&.0.0.0.0.q.q.Q.Q.'.(.&.^ 1.s.d.y.o.o.o.o.M.M.",
"n.n.b.b.M.n.o.o.o.o.M.M.o.X.+.o.M.M.T @.%.#.#.#.W E 5.q.0.q.0.0.T.Q.{.}.%.E y.y.u.t.o.o.o.o.M.M.",
"m.M.M.M.P.P.M.M.M.M.M.P.M.M.r.y.1.3.5.q.w.q.w.N.#.W %.E 5.4.4.e.0.q.E #.2.j.j.a.M.M.M.M.M.M.M.M.",
"M.M.M.m.M.M.M.M.P.M.m.M.n.M.i.h.h.q.5.4.q.q.0.q.H %.Q W 5.5.4.0.0.q.W W s.y.p...M.M.M.M.M.M.M.M.",
"+.o.o.l.n.M.k.o.o.+.M.M.4 9 6 6 6 r : , 2 ; , , 8.2.x z u z l l l l y.d.s.p.c.z.M.M.o.o.o.o.M.M.",
"o.o.+.o.m.M.X.+.o.o.M.n.9 8 e e e 6 > < ; , , , 5.5.z p s p z p l h y.u.y.r.z.v.M.M.+.o.o.+.M.M.",
"o.o.o.o.n.M.X.+.4 9 8 8 8 e 1 1 : < > : x l l l z z l z W W W W E W y.r.x.b.z.b.M.M.+.o.o.+.M.M.",
"o.+.X.+.M.M.o.X.8 t y e y y 5 1 < : > < l z z z z z z u W W W W ) R r.t.v.x.x.z.M.M.o.o.o.o.M.M.",
"m.M.M.n.M.M.9 t 8 t & * $ & = & l l l l l z E &.E E #.#.s.g.2.s.y.r.M.M.M.M.P.P.M.M.M.M.M.M.M.M.",
"M.M.M.M.M.M.w q w q $ $ = $ * # h j j j 9 i ( R %.#.#.$.:.g.1.y.r.a.P.M.M.m.n.m.M.M.M.M.M.M.M.M.",
"o.+.X.o.X @ O * % % % % % O +.o.M.M.o.o.o.o.M.M.R E f.:.d.u.o.o.+.o.m.M.o.o.+.o.M.M.o.o.o.o.M.M.",
"o.o.o.o.X @ @ o O O o @ o X o.o.M.M.o.o.o.o.M.M.I ) ;.d.u...o.l.o.o.P.M.X.o.o.o.M.M.o.o.o.o.M.M.",
"+.X.+.+.n.M.| O.| | M.n.+.+.X.+.M.m.+.o.o.+.m.M.b.n.m m M.M.X.X.o.o.M.M.+.+.X.o.M.m.+.o.o.+.m.M.",
"o.o.o.o.M.M.| | | | M.M.o.o.o.o.M.M.o.o.o.o.M.M.b.n._ _ M.M.l.+.+.o.m.M.o.o.+.o.M.M.o.o.o.o.M.M.",
"M.M.M.M.M.M.M.M.M.M.M.M.M.M.M.M.M.M.M.M.M.M.M.M.M.M.` ' ] [ M.M.M.M.M.M.M.M.M.M.M.M.M.M.M.M.M.M.",
"M.M.M.M.P.M.M.M.M.M.M.P.M.M.M.M.M.M.M.M.M.M.M.M.M.m.[ ' } ' M.M.M.M.M.M.M.M.m.M.M.M.M.M.M.M.M.M.",
"+.o.o.o.n.M.b.x.x.b.M.n.o.o.o.+.M.M.M M M M M.M.m v o.o.' } ] { +.o.M.M.o.o.k.X.M.M.| | | | M.M.",
"o.o.o.o.M.M.x.x.x.x.M.M.o.o.o.o.M.M.M M M M M.M.m m o.+.[ ' ] { o.o.M.M.+.o.o.o.M.M.| | | | M.M.",
"o.o.o.o.M.M.x.x.x.x.M.M.o.o.o.o.M.M.M M M M M.M.o.o.o.+.M.M.o.o.o.o.M.M.+.o.o.o.M.M.| | | | M.M.",
"+.o.o.o.n.M.b.x.x.b.M.n.o.o.o.+.M.M.M M M M M.M.X.k.o.o.M.M.o.+.+.o.M.M.o.o.k.X.M.M.| | | | M.M.",
"M.M.M.M.P.M.M.M.M.M.M.P.M.M.M.M.M.M.M.M.M.M.M.M.M.m.M.M.M.M.M.M.M.M.M.M.M.M.m.M.M.M.M.M.M.M.M.M.",
"M.M.M.M.M.M.M.M.M.M.M.M.M.M.M.M.M.M.M.M.M.M.M.M.M.M.M.M.M.M.M.M.M.M.M.M.M.M.M.M.M.M.M.M.M.M.M.M."
};
