/* XPM */
static char *_ab9c098b80145cb87cb3fc4155f9535uf0KrgVSwtvuSgGR[] = {
/* columns rows colors chars-per-pixel */
"48 48 27 1 ",
"  c #787457",
". c #797558",
"X c #787459",
"o c #7A7659",
"O c #79755A",
"+ c #7B775A",
"@ c #7A765B",
"# c #7B775C",
"$ c #7C785B",
"% c #7C785D",
"& c #7E7A5D",
"* c #7D795E",
"= c #7E7A5F",
"- c #9A9679",
"; c #9B977A",
": c #9A967B",
"> c #9B977C",
", c #9C987B",
"< c #9D997C",
"1 c #9C987D",
"2 c #9E9A7D",
"3 c #9D997E",
"4 c #9F9B7E",
"5 c #9E9A7F",
"6 c #A09C7F",
"7 c #9F9B80",
"8 c #A09C81",
/* pixels */
"@@@@@@@@@#@@@#@@@@@@@@@@@@@@@@@@@#@@@#@@@@@@@@@@",
"@@@@@@@@@@&@#@#&@@@@@@@@@@@@@@@@@@&@#@#&@@@@@@@@",
"@@@@@@@@#@@@#@#@@@@@@@@@@@@@@@@@#@@@#@#@@@@@@@@@",
"@@@@@@@@&@#&@@&@@@@@@@@@@@@@@@@@&@#&@@&@@@@@@@@@",
"55555555555;&@@@5555555555555555555;&@@@55555555",
"555555555857@&@&55555555555555555857@&@&55555555",
"5555555555;5@&@@555555555555555555;5@&@@55555555",
"555555555555@@@@55555555555555555555@@@@55555555",
"@@ @@@ @@@@@@@@@@#@@@#@@@@@@@@@@@@@@@@@@@@@@@@@@",
"@@$@@ @$@@@@@@@@@@&@#@#&@@@@@@@@@@@@@@@@@@@@@@@@",
"@ @@@ @ @@@@@@@@#@@@#@#@@@@@@@@@@@@@@@@@@@@@@@@@",
"$@@& @$@@@@@@@@@&@#&@@&@@@@@@@@@@@@@@@@@@@@@@@@@",
",5,;$@ @55555555555;&@@@555555555555555555555555",
"5655 $@$555555555857@&@&555555555555555555555555",
"55;5 $@ 5555555575>5@&@@555555555555555555555555",
"5,55 @@@555555555577@@#@555555555555555555555555",
"@@@@@@@@@@#@@@#@@@@@@@@@@#@@@#@@@@@@@@@@@@@@@@@@",
"@@@@@@@@&#@#@&@@@@@@@@@@@@&@#@#&@@@@@@@@@@@@@@@@",
"@@@@@@@@@#@#@@@#@@@@@@@@#@@@#@#@@@@@@@@@@@@@@@@@",
"@@@@@@@@@&@@&#@&@@@@@@@@&@#&@@&@@@@@@@@@@@@@@@@@",
"55555555@@@&;55555555555555;&@@@5555555555555555",
"55555555&@&@5585555555555857@&@&5555555555555555",
"55555555X@&@5;555555555575>5@#@X5555555555555555",
"55555555@#@@5555555555555577@@#@5555555555555555",
"@@@@@@@@@@@@@@@@@@  @@@@@@@@@@@@@@@@@@@@@@#@@@#@",
"@@@@@@@@@@@@@@@@ @$@@@@$@@@@@@@@@@@@@@@@&#@#@&@@",
"@@@@@@@@@@@@@@@@@ @ @@@ @@@@@@@@@@@@@@@@@#@#@@@#",
"@@@@@@@@@@@@@@@@$@@& @$@@@@@@@@@@@@@@@@@@&@@&#@&",
"5555555555555555,5,;$@ @5555555555555555@@@&;555",
"555555555555555556,5 $ $5555555555555555&@&@7585",
"555555555555555555;5 $  5555555555555555X@&@5>57",
"55555555555555555555  @@5555555555555555@#@@7755",
"@@@@@@@@@#@@@#@@@@@@@@@@@#@@@#@@@@@@@@@@@@@@@@@@",
"@@@@@@@@@@&@#@#&@@@@@@@@@@&@#@#&@@@@@@@@@@@@@@@@",
"@@@@@@@@#@@@#@#@@@@@@@@@#@@@#@#@@@@@@@@@@@@@@@@@",
"@@@@@@@@&@#&@@&@@@@@@@@@&@#&@@&@@@@@@@@@@@@@@@@@",
"55555555555;&@@@55555555555;&@X@5555555555555555",
"555555555857@&@&555555555857@&@&5555555555555555",
"5555555575>5@#@X5555555575>5@&@@5555555555555555",
"555555555577@@#@555555555577@@#@5555555555555555",
"@@  @@@@@@@@@@@@@@@@@@@@@@@@@@@@@@@@@@@@@@@@@@@@",
" @$@@@@$@@@@@@@@@@@@@@@@@@@@@@@@#@#@@#@#@@@@@@@@",
"@ @ @@@ @@@@@@@@@@@@@@@@@@@@@@@@@@#@@#@@@@@@@@@@",
"$@@& @$@@@@@@@@@@@@@@@@@@@@@@@@@@&@##@&@@@@@@@@@",
",5,;$@ @5555555555555555555555555>#@@#>555555555",
"56,5 $ $55555555555555555555555558@##@8555555555",
"55;5 $  55555555555555555555555557@@@@7555555555",
"5555  @@55555555555555555555555557@@@@7555555555"
};
